<?xml version="1.0" encoding="utf-8"?>
<!-- Generator: Adobe Illustrator 25.4.1, SVG Export Plug-In . SVG Version: 6.00 Build 0)  -->
<svg version="1.1" id="Layer_1" xmlns="http://www.w3.org/2000/svg" xmlns:xlink="http://www.w3.org/1999/xlink" x="0px" y="0px"
	 viewBox="0 0 159.37 120.62" style="enable-background:new 0 0 159.37 120.62;" xml:space="preserve">
<style type="text/css">
	.st0{fill:#FFFFFF;stroke:#000000;stroke-miterlimit:10;}
</style>
<g id="London">
	<rect x="98.62" y="97.23" class="st0" width="16" height="10"/>
	<line class="st0" x1="102.62" y1="100.23" x2="102.62" y2="104.23"/>
	<line class="st0" x1="106.62" y1="100.23" x2="106.62" y2="104.23"/>
	<line class="st0" x1="110.62" y1="100.23" x2="110.62" y2="104.23"/>
	<rect x="98.62" y="87.23" class="st0" width="16" height="10"/>
	<line class="st0" x1="102.62" y1="90.23" x2="102.62" y2="94.23"/>
	<line class="st0" x1="93.62" y1="90.23" x2="93.62" y2="94.23"/>
	<line class="st0" x1="93.62" y1="100.23" x2="93.62" y2="104.23"/>
	<line class="st0" x1="106.62" y1="90.23" x2="106.62" y2="94.23"/>
	<line class="st0" x1="110.62" y1="90.23" x2="110.62" y2="94.23"/>
	<rect x="98.62" y="77.23" class="st0" width="16" height="10"/>
	<line class="st0" x1="102.62" y1="80.23" x2="102.62" y2="84.23"/>
	<line class="st0" x1="106.62" y1="80.23" x2="106.62" y2="84.23"/>
	<line class="st0" x1="110.62" y1="80.23" x2="110.62" y2="84.23"/>
	<rect x="98.62" y="67.23" class="st0" width="16" height="10"/>
	<line class="st0" x1="102.62" y1="70.23" x2="102.62" y2="74.23"/>
	<line class="st0" x1="106.62" y1="70.23" x2="106.62" y2="74.23"/>
	<line class="st0" x1="110.62" y1="70.23" x2="110.62" y2="74.23"/>
	<rect x="98.62" y="57.23" class="st0" width="16" height="10"/>
	<line class="st0" x1="102.62" y1="60.23" x2="102.62" y2="64.23"/>
	<line class="st0" x1="88.62" y1="68.23" x2="88.62" y2="72.23"/>
	<line class="st0" x1="78.62" y1="68.23" x2="78.62" y2="72.23"/>
	<line class="st0" x1="68.62" y1="68.23" x2="68.62" y2="72.23"/>
	<line class="st0" x1="58.62" y1="68.23" x2="58.62" y2="72.23"/>
	<line class="st0" x1="106.62" y1="60.23" x2="106.62" y2="64.23"/>
	<line class="st0" x1="110.62" y1="60.23" x2="110.62" y2="64.23"/>
	<rect x="94.62" y="37.23" class="st0" width="24" height="20"/>
	<circle class="st0" cx="106.62" cy="47.23" r="6"/>
	<polygon class="st0" points="114.62,37.23 98.62,37.23 98.62,30.23 102.62,24.23 110.62,24.23 114.62,30.23 	"/>
	<line class="st0" x1="99.62" y1="30.23" x2="113.62" y2="30.23"/>
	<polygon class="st0" points="102.62,17.23 106.62,5.23 110.62,17.23 110.62,24.23 102.62,24.23 	"/>
	<line class="st0" x1="103.62" y1="17.23" x2="109.62" y2="17.23"/>
	<line class="st0" x1="106.62" y1="1.23" x2="106.62" y2="5.23"/>
	<line class="st0" x1="118.62" y1="34.23" x2="118.62" y2="37.23"/>
	<line class="st0" x1="102.62" y1="33.23" x2="102.62" y2="34.23"/>
	<line class="st0" x1="106.62" y1="33.23" x2="106.62" y2="34.23"/>
	<line class="st0" x1="110.62" y1="33.23" x2="110.62" y2="34.23"/>
	<line class="st0" x1="94.62" y1="34.23" x2="94.62" y2="37.23"/>
	<line class="st0" x1="106.62" y1="20.23" x2="106.62" y2="21.23"/>
	<line class="st0" x1="97.62" y1="40.23" x2="97.62" y2="54.23"/>
	<line class="st0" x1="115.62" y1="40.23" x2="115.62" y2="54.23"/>
	<line class="st0" x1="106.62" y1="44.23" x2="106.62" y2="47.23"/>
	<line class="st0" x1="106.62" y1="47.23" x2="108.62" y2="47.23"/>
	<line class="st0" x1="25.62" y1="113.23" x2="123.62" y2="113.23"/>
	<rect x="88.62" y="87.23" class="st0" width="10" height="20"/>
	<rect x="88.62" y="72.23" class="st0" width="10" height="15"/>
	<path class="st0" d="M89.62,81.23h2v-2c0-1.1,0.9-2,2-2c1.11,0,2,0.9,2,2v2h2"/>
	<line class="st0" x1="83.62" y1="90.23" x2="83.62" y2="94.23"/>
	<line class="st0" x1="83.62" y1="100.23" x2="83.62" y2="104.23"/>
	<rect x="78.62" y="87.23" class="st0" width="10" height="20"/>
	<rect x="78.62" y="72.23" class="st0" width="10" height="15"/>
	<path class="st0" d="M79.62,81.23h2v-2c0-1.1,0.9-2,2-2c1.11,0,2,0.9,2,2v2h2"/>
	<line class="st0" x1="73.62" y1="90.23" x2="73.62" y2="94.23"/>
	<line class="st0" x1="73.62" y1="100.23" x2="73.62" y2="104.23"/>
	<rect x="68.62" y="87.23" class="st0" width="10" height="20"/>
	<rect x="68.62" y="72.23" class="st0" width="10" height="15"/>
	<path class="st0" d="M69.62,81.23h2v-2c0-1.1,0.9-2,2-2c1.11,0,2,0.9,2,2v2h2"/>
	<line class="st0" x1="63.62" y1="90.23" x2="63.62" y2="94.23"/>
	<line class="st0" x1="63.62" y1="100.23" x2="63.62" y2="104.23"/>
	<rect x="58.62" y="87.23" class="st0" width="10" height="20"/>
	<rect x="58.62" y="72.23" class="st0" width="10" height="15"/>
	<path class="st0" d="M59.62,81.23h2v-2c0-1.1,0.9-2,2-2s2,0.9,2,2v2h2"/>
	<circle class="st0" cx="54.62" cy="53.23" r="2"/>
	<path class="st0" d="M48.18,53.93c0.34,1.05-0.23,2.18-1.28,2.52c-1.05,0.34-2.18-0.23-2.52-1.28c-0.34-1.05,0.23-2.18,1.28-2.52
		C46.71,52.31,47.84,52.88,48.18,53.93z"/>
	<path class="st0" d="M40.37,57.21c0.65,0.89,0.45,2.14-0.44,2.79c-0.89,0.65-2.15,0.45-2.79-0.44c-0.65-0.89-0.45-2.14,0.44-2.79
		C38.47,56.12,39.72,56.32,40.37,57.21z"/>
	<path class="st0" d="M33.95,62.74c0.89,0.65,1.09,1.9,0.44,2.79c-0.65,0.89-1.9,1.09-2.79,0.44c-0.89-0.65-1.09-1.9-0.44-2.79
		C31.81,62.29,33.06,62.09,33.95,62.74z"/>
	<path class="st0" d="M29.56,69.98c1.05,0.34,1.62,1.47,1.28,2.52c-0.34,1.05-1.47,1.63-2.52,1.28c-1.05-0.34-1.62-1.47-1.28-2.52
		C27.38,70.22,28.51,69.64,29.56,69.98z"/>
	<circle class="st0" cx="27.62" cy="80.23" r="2"/>
	<path class="st0" d="M28.33,86.67c1.05-0.34,2.18,0.23,2.52,1.28c0.34,1.05-0.23,2.18-1.28,2.52c-1.05,0.34-2.18-0.23-2.52-1.28
		C26.7,88.14,27.27,87.01,28.33,86.67z"/>
	<path class="st0" d="M31.6,94.48c0.89-0.65,2.14-0.45,2.79,0.44c0.65,0.89,0.45,2.15-0.44,2.79c-0.89,0.65-2.14,0.45-2.79-0.44
		C30.51,96.38,30.71,95.13,31.6,94.48z"/>
	<path class="st0" d="M72.11,59.56c-0.65,0.89-1.9,1.09-2.79,0.44c-0.89-0.65-1.09-1.9-0.44-2.79c0.65-0.89,1.9-1.09,2.79-0.44
		C72.56,57.42,72.76,58.67,72.11,59.56z"/>
	<path class="st0" d="M64.87,55.17c-0.34,1.05-1.47,1.62-2.52,1.28c-1.05-0.34-1.63-1.47-1.28-2.52c0.34-1.05,1.47-1.62,2.52-1.28
		C64.63,52.99,65.21,54.12,64.87,55.17z"/>
	<path class="st0" d="M54.62,82.23c-1.1,0-2-0.89-2-2c0-1.1,0.9-2,2-2"/>
	<line class="st0" x1="54.62" y1="61.23" x2="54.62" y2="74.23"/>
	<line class="st0" x1="48.75" y1="62.16" x2="52.77" y2="74.52"/>
	<line class="st0" x1="43.45" y1="64.86" x2="51.09" y2="75.38"/>
	<line class="st0" x1="39.25" y1="69.06" x2="49.77" y2="76.7"/>
	<line class="st0" x1="36.55" y1="74.36" x2="48.92" y2="78.38"/>
	<line class="st0" x1="35.62" y1="80.23" x2="48.62" y2="80.23"/>
	<line class="st0" x1="36.55" y1="86.1" x2="48.92" y2="82.08"/>
	<line class="st0" x1="39.25" y1="91.4" x2="49.77" y2="83.76"/>
	<line class="st0" x1="43.45" y1="95.6" x2="51.09" y2="85.08"/>
	<line class="st0" x1="48.75" y1="98.3" x2="52.77" y2="85.94"/>
	<polyline class="st0" points="46.62,104.23 45.62,107.23 40.62,107.23 	"/>
	<path class="st0" d="M54.62,102.23c-12.15,0-22-9.85-22-22s9.85-22,22-22"/>
	<line class="st0" x1="114.62" y1="107.23" x2="119.62" y2="107.23"/>
	<line class="st0" x1="53.62" y1="107.23" x2="59.62" y2="107.23"/>
</g>
</svg>
